{
  "accessors": [
    {
      "bufferView": 2,
      "componentType": 5126,
      "count": 40,
      "max": [
        0.56000000238418579,
        -0,
        1.6609669923782349
      ],
      "min": [
        0.019999999552965164,
        -0.55472898483276367,
        0
      ],
      "type": "VEC3"
    },
    {
      "bufferView": 2,
      "byteOffset": 480,
      "componentType": 5126,
      "count": 40,
      "max": [
        0,
        1,
        0.99915492534637451
      ],
      "min": [
        0,
        -0.76318144798278809,
        0
      ],
      "type": "VEC3"
    },
    {
      "bufferView": 3,
      "componentType": 5126,
      "count": 40,
      "max": [
        0,
        0,
        0,
        1
      ],
      "min": [
        0,
        0,
        0,
        1
      ],
      "type": "VEC4"
    },
    {
      "bufferView": 1,
      "componentType": 5126,
      "count": 40,
      "max": [
        0.58929902315139771,
        0.97058701515197754
      ],
      "min": [
        0.27103298902511597,
        0.017636999487876892
      ],
      "type": "VEC2"
    },
    {
      "bufferView": 0,
      "componentType": 5125,
      "count": 114,
      "max": [
        39
      ],
      "min": [
        0
      ],
      "type": "SCALAR"
    },
    {
      "bufferView": 2,
      "byteOffset": 960,
      "componentType": 5126,
      "count": 6,
      "max": [
        0.56000000238418579,
        -0.69324100017547607,
        0.85028702020645142
      ],
      "min": [
        0.019999999552965164,
        -0.69641602039337158,
        0
      ],
      "type": "VEC3"
    },
    {
      "bufferView": 2,
      "byteOffset": 1032,
      "componentType": 5126,
      "count": 6,
      "max": [
        0,
        -0.99998986721038818,
        0
      ],
      "min": [
        0,
        -1,
        -0.0044999541714787483
      ],
      "type": "VEC3"
    },
    {
      "bufferView": 3,
      "byteOffset": 640,
      "componentType": 5126,
      "count": 6,
      "max": [
        1,
        0,
        0,
        1
      ],
      "min": [
        1,
        0,
        0,
        1
      ],
      "type": "VEC4"
    },
    {
      "bufferView": 1,
      "byteOffset": 320,
      "componentType": 5126,
      "count": 6,
      "max": [
        0.82645899057388306,
        1
      ],
      "min": [
        0.19148600101470947,
        0.00015900000289548188
      ],
      "type": "VEC2"
    },
    {
      "bufferView": 0,
      "byteOffset": 456,
      "componentType": 5125,
      "count": 12,
      "max": [
        5
      ],
      "min": [
        0
      ],
      "type": "SCALAR"
    },
    {
      "bufferView": 2,
      "byteOffset": 1104,
      "componentType": 5126,
      "count": 32,
      "max": [
        0.57999998331069946,
        -0,
        1.6609669923782349
      ],
      "min": [
        0.57999998331069946,
        -0.72351199388504028,
        0
      ],
      "type": "VEC3"
    },
    {
      "bufferView": 2,
      "byteOffset": 1488,
      "componentType": 5126,
      "count": 32,
      "max": [
        -1,
        -0,
        0
      ],
      "min": [
        -1,
        -0,
        0
      ],
      "type": "VEC3"
    },
    {
      "bufferView": 3,
      "byteOffset": 736,
      "componentType": 5126,
      "count": 32,
      "max": [
        0,
        1,
        0.0008499569958075881,
        -1
      ],
      "min": [
        0,
        0.99999970197677612,
        -0.00023961182159837335,
        -1
      ],
      "type": "VEC4"
    },
    {
      "bufferView": 1,
      "byteOffset": 368,
      "componentType": 5126,
      "count": 32,
      "max": [
        0.68719702959060669,
        0.98177498579025269
      ],
      "min": [
        0.26678699254989624,
        0.01664000004529953
      ],
      "type": "VEC2"
    },
    {
      "bufferView": 0,
      "byteOffset": 504,
      "componentType": 5125,
      "count": 90,
      "max": [
        31
      ],
      "min": [
        0
      ],
      "type": "SCALAR"
    },
    {
      "bufferView": 2,
      "byteOffset": 1872,
      "componentType": 5126,
      "count": 24,
      "max": [
        0.56000000238418579,
        -0.077674999833106995,
        1.0839879512786865
      ],
      "min": [
        0.019999999552965164,
        -0.7167009711265564,
        0.76172900199890137
      ],
      "type": "VEC3"
    },
    {
      "bufferView": 2,
      "byteOffset": 2160,
      "componentType": 5126,
      "count": 24,
      "max": [
        1,
        0.93970000743865967,
        0.93970000743865967
      ],
      "min": [
        -1,
        -0.93970000743865967,
        -0.93970000743865967
      ],
      "type": "VEC3"
    },
    {
      "bufferView": 3,
      "byteOffset": 1248,
      "componentType": 5126,
      "count": 24,
      "max": [
        1,
        0,
        0,
        1
      ],
      "min": [
        0,
        0,
        0,
        -1
      ],
      "type": "VEC4"
    },
    {
      "bufferView": 1,
      "byteOffset": 624,
      "componentType": 5126,
      "count": 24,
      "max": [
        0.95935100317001343,
        0.95940601825714111
      ],
      "min": [
        0.040649000555276871,
        0.041949998587369919
      ],
      "type": "VEC2"
    },
    {
      "bufferView": 0,
      "byteOffset": 864,
      "componentType": 5125,
      "count": 36,
      "max": [
        23
      ],
      "min": [
        0
      ],
      "type": "SCALAR"
    },
    {
      "bufferView": 2,
      "byteOffset": 2448,
      "componentType": 5126,
      "count": 56,
      "max": [
        0.56000000238418579,
        -0.082290001213550568,
        1.4240330457687378
      ],
      "min": [
        0.019999999552965164,
        -0.66725200414657593,
        0.89013898372650146
      ],
      "type": "VEC3"
    },
    {
      "bufferView": 2,
      "byteOffset": 3120,
      "componentType": 5126,
      "count": 56,
      "max": [
        1,
        0.92891061305999756,
        0.88079530000686646
      ],
      "min": [
        -1,
        -0.92891061305999756,
        -0.88079530000686646
      ],
      "type": "VEC3"
    },
    {
      "bufferView": 0,
      "byteOffset": 1008,
      "componentType": 5125,
      "count": 216,
      "max": [
        55
      ],
      "min": [
        0
      ],
      "type": "SCALAR"
    },
    {
      "bufferView": 2,
      "byteOffset": 3792,
      "componentType": 5126,
      "count": 154,
      "max": [
        0.56000000238418579,
        -0.019999999552965164,
        1.6409389972686768
      ],
      "min": [
        0.019999999552965164,
        -0.72351199388504028,
        0.019999999552965164
      ],
      "type": "VEC3"
    },
    {
      "bufferView": 2,
      "byteOffset": 5640,
      "componentType": 5126,
      "count": 154,
      "max": [
        1,
        1,
        1
      ],
      "min": [
        -1,
        -1,
        -0.99915492534637451
      ],
      "type": "VEC3"
    },
    {
      "bufferView": 3,
      "byteOffset": 1632,
      "componentType": 5126,
      "count": 154,
      "max": [
        0,
        0,
        0.084163762629032135,
        1
      ],
      "min": [
        0,
        -1,
        -0.010682228952646255,
        -1
      ],
      "type": "VEC4"
    },
    {
      "bufferView": 1,
      "byteOffset": 816,
      "componentType": 5126,
      "count": 154,
      "max": [
        0.68613499402999878,
        0.95909601449966431
      ],
      "min": [
        0.28250798583030701,
        0.029112000018358231
      ],
      "type": "VEC2"
    },
    {
      "bufferView": 0,
      "byteOffset": 1872,
      "componentType": 5125,
      "count": 468,
      "max": [
        153
      ],
      "min": [
        0
      ],
      "type": "SCALAR"
    },
    {
      "bufferView": 2,
      "byteOffset": 7488,
      "componentType": 5126,
      "count": 192,
      "max": [
        0.41710799932479858,
        -0.60309398174285889,
        0.90912598371505737
      ],
      "min": [
        0.27036499977111816,
        -0.66869300603866577,
        0.88312900066375732
      ],
      "type": "VEC3"
    },
    {
      "bufferView": 2,
      "byteOffset": 9792,
      "componentType": 5126,
      "count": 192,
      "max": [
        1,
        0.93970000743865967,
        0.93970000743865967
      ],
      "min": [
        -1,
        -0.93970000743865967,
        -0.93970000743865967
      ],
      "type": "VEC3"
    },
    {
      "bufferView": 0,
      "byteOffset": 3744,
      "componentType": 5125,
      "count": 540,
      "max": [
        191
      ],
      "min": [
        0
      ],
      "type": "SCALAR"
    },
    {
      "bufferView": 2,
      "byteOffset": 12096,
      "componentType": 5126,
      "count": 151,
      "max": [
        0.57999998331069946,
        -0,
        1.6609669923782349
      ],
      "min": [
        0,
        -0.72351199388504028,
        0
      ],
      "type": "VEC3"
    },
    {
      "bufferView": 2,
      "byteOffset": 13908,
      "componentType": 5126,
      "count": 151,
      "max": [
        0,
        1,
        1
      ],
      "min": [
        0,
        -1,
        -1
      ],
      "type": "VEC3"
    },
    {
      "bufferView": 3,
      "byteOffset": 4096,
      "componentType": 5126,
      "count": 151,
      "max": [
        0,
        0.15358451008796692,
        0.61131811141967773,
        1
      ],
      "min": [
        -0.78770929574966431,
        0,
        0,
        1
      ],
      "type": "VEC4"
    },
    {
      "bufferView": 1,
      "byteOffset": 2048,
      "componentType": 5126,
      "count": 151,
      "max": [
        0.68613499402999878,
        0.97058701515197754
      ],
      "min": [
        0.27103298902511597,
        0.017636999487876892
      ],
      "type": "VEC2"
    },
    {
      "bufferView": 0,
      "byteOffset": 5904,
      "componentType": 5125,
      "count": 402,
      "max": [
        150
      ],
      "min": [
        0
      ],
      "type": "SCALAR"
    },
    {
      "bufferView": 2,
      "byteOffset": 15720,
      "componentType": 5126,
      "count": 36,
      "max": [
        0.56000000238418579,
        -0,
        1.6609669923782349
      ],
      "min": [
        0,
        -0.72351199388504028,
        0
      ],
      "type": "VEC3"
    },
    {
      "bufferView": 2,
      "byteOffset": 16152,
      "componentType": 5126,
      "count": 36,
      "max": [
        1,
        -0,
        0
      ],
      "min": [
        -1,
        -0,
        0
      ],
      "type": "VEC3"
    },
    {
      "bufferView": 3,
      "byteOffset": 6512,
      "componentType": 5126,
      "count": 36,
      "max": [
        0,
        0,
        0.0063057993538677692,
        1
      ],
      "min": [
        0,
        -1,
        -0.009874541312456131,
        1
      ],
      "type": "VEC4"
    },
    {
      "bufferView": 1,
      "byteOffset": 3256,
      "componentType": 5126,
      "count": 36,
      "max": [
        0.68613499402999878,
        0.97058701515197754
      ],
      "min": [
        0,
        0
      ],
      "type": "VEC2"
    },
    {
      "bufferView": 0,
      "byteOffset": 7512,
      "componentType": 5125,
      "count": 96,
      "max": [
        35
      ],
      "min": [
        0
      ],
      "type": "SCALAR"
    },
    {
      "bufferView": 2,
      "byteOffset": 16584,
      "componentType": 5126,
      "count": 24,
      "max": [
        0.56000000238418579,
        -0.51916801929473877,
        1.6081500053405762
      ],
      "min": [
        0.019999999552965164,
        -0.53916901350021362,
        1.4081499576568604
      ],
      "type": "VEC3"
    },
    {
      "bufferView": 2,
      "byteOffset": 16872,
      "componentType": 5126,
      "count": 24,
      "max": [
        1,
        1,
        1
      ],
      "min": [
        -1,
        -1,
        -1
      ],
      "type": "VEC3"
    },
    {
      "bufferView": 3,
      "byteOffset": 7088,
      "componentType": 5126,
      "count": 24,
      "max": [
        1,
        0,
        0,
        1
      ],
      "min": [
        0,
        0,
        0,
        -1
      ],
      "type": "VEC4"
    },
    {
      "bufferView": 1,
      "byteOffset": 3544,
      "componentType": 5126,
      "count": 24,
      "max": [
        0.96614199876785278,
        0.69623702764511108
      ],
      "min": [
        0.034759998321533203,
        0.35128000378608704
      ],
      "type": "VEC2"
    },
    {
      "bufferView": 0,
      "byteOffset": 7896,
      "componentType": 5125,
      "count": 36,
      "max": [
        23
      ],
      "min": [
        0
      ],
      "type": "SCALAR"
    },
    {
      "bufferView": 2,
      "byteOffset": 17160,
      "componentType": 5126,
      "count": 242,
      "max": [
        0.52553600072860718,
        -0.60808402299880981,
        0.96633201837539673
      ],
      "min": [
        0.27036499977111816,
        -0.68954402208328247,
        0.87521499395370483
      ],
      "type": "VEC3"
    },
    {
      "bufferView": 2,
      "byteOffset": 20064,
      "componentType": 5126,
      "count": 242,
      "max": [
        1,
        0.99940133094787598,
        0.99783271551132202
      ],
      "min": [
        -1,
        -0.99940133094787598,
        -0.99783271551132202
      ],
      "type": "VEC3"
    },
    {
      "bufferView": 0,
      "byteOffset": 8040,
      "componentType": 5125,
      "count": 1032,
      "max": [
        241
      ],
      "min": [
        0
      ],
      "type": "SCALAR"
    }
  ],
  "asset": {
    "extras": {
      "author": "Nuno Lopes (https://sketchfab.com/ntriguinho)",
      "license": "CC-BY-4.0 (http://creativecommons.org/licenses/by/4.0/)",
      "source": "https://sketchfab.com/3d-models/godot-arcade-machine-bbdef7c9deeb4fc2b996702bd180d610",
      "title": "Godot Arcade Machine"
    },
    "generator": "Sketchfab-5.54.1",
    "version": "2.0"
  },
  "bufferViews": [
    {
      "buffer": 0,
      "byteLength": 12168,
      "byteOffset": 0,
      "name": "floatBufferViews",
      "target": 34963
    },
    {
      "buffer": 0,
      "byteLength": 3736,
      "byteOffset": 12168,
      "byteStride": 8,
      "name": "floatBufferViews",
      "target": 34962
    },
    {
      "buffer": 0,
      "byteLength": 22968,
      "byteOffset": 15904,
      "byteStride": 12,
      "name": "floatBufferViews",
      "target": 34962
    },
    {
      "buffer": 0,
      "byteLength": 7472,
      "byteOffset": 38872,
      "byteStride": 16,
      "name": "floatBufferViews",
      "target": 34962
    }
  ],
  "buffers": [
    {
      "byteLength": 46344,
      "uri": "scene.bin"
    }
  ],
  "extensionsRequired": [
    "KHR_materials_pbrSpecularGlossiness"
  ],
  "extensionsUsed": [
    "KHR_materials_pbrSpecularGlossiness"
  ],
  "images": [
    {
      "uri": "textures/Front_Bottom_diffuse.jpeg"
    },
    {
      "uri": "textures/Left_diffuse.jpeg"
    },
    {
      "uri": "textures/Material_diffuse.jpeg"
    },
    {
      "uri": "textures/Right_diffuse.jpeg"
    },
    {
      "uri": "textures/SVGMat.013_diffuse.png"
    }
  ],
  "materials": [
    {
      "doubleSided": true,
      "extensions": {
        "KHR_materials_pbrSpecularGlossiness": {
          "diffuseFactor": [
            0,
            0,
            0,
            1
          ],
          "glossinessFactor": 0.40000000000000002,
          "specularFactor": [
            0,
            0,
            0
          ]
        }
      },
      "name": "Black"
    },
    {
      "doubleSided": true,
      "extensions": {
        "KHR_materials_pbrSpecularGlossiness": {
          "diffuseFactor": [
            0.0237142745,
            0.20758562659999999,
            0.42808864489999998,
            1
          ],
          "glossinessFactor": 0.40000000000000002,
          "specularFactor": [
            0,
            0,
            0
          ]
        }
      },
      "name": "Bright_Blue"
    },
    {
      "doubleSided": true,
      "extensions": {
        "KHR_materials_pbrSpecularGlossiness": {
          "diffuseFactor": [
            0,
            0,
            0,
            1
          ],
          "glossinessFactor": 0.40000000000000002,
          "specularFactor": [
            0,
            0,
            0
          ]
        }
      },
      "name": "DullBlue"
    },
    {
      "doubleSided": true,
      "extensions": {
        "KHR_materials_pbrSpecularGlossiness": {
          "diffuseFactor": [
            1,
            1,
            1,
            1
          ],
          "diffuseTexture": {
            "index": 0,
            "texCoord": 0
          },
          "glossinessFactor": 0.40000000000000002,
          "specularFactor": [
            0,
            0,
            0
          ]
        }
      },
      "name": "Front_Bottom"
    },
    {
      "doubleSided": true,
      "extensions": {
        "KHR_materials_pbrSpecularGlossiness": {
          "diffuseFactor": [
            1,
            1,
            1,
            1
          ],
          "diffuseTexture": {
            "index": 1,
            "texCoord": 0
          },
          "glossinessFactor": 1,
          "specularFactor": [
            0,
            0,
            0
          ]
        }
      },
      "name": "Left"
    },
    {
      "doubleSided": true,
      "extensions": {
        "KHR_materials_pbrSpecularGlossiness": {
          "diffuseFactor": [
            1,
            1,
            1,
            1
          ],
          "diffuseTexture": {
            "index": 2,
            "texCoord": 0
          },
          "glossinessFactor": 0.40000000000000002,
          "specularFactor": [
            0,
            0,
            0
          ]
        }
      },
      "name": "Material"
    },
    {
      "doubleSided": true,
      "extensions": {
        "KHR_materials_pbrSpecularGlossiness": {
          "diffuseFactor": [
            1,
            0,
            0,
            1
          ],
          "glossinessFactor": 0.40000000000000002,
          "specularFactor": [
            0,
            0,
            0
          ]
        }
      },
      "name": "RedMaterial"
    },
    {
      "doubleSided": true,
      "extensions": {
        "KHR_materials_pbrSpecularGlossiness": {
          "diffuseFactor": [
            1,
            1,
            1,
            1
          ],
          "diffuseTexture": {
            "index": 3,
            "texCoord": 0
          },
          "glossinessFactor": 0.40000000000000002,
          "specularFactor": [
            0,
            0,
            0
          ]
        }
      },
      "name": "Right"
    },
    {
      "doubleSided": true,
      "extensions": {
        "KHR_materials_pbrSpecularGlossiness": {
          "diffuseFactor": [
            1,
            1,
            1,
            1
          ],
          "diffuseTexture": {
            "index": 4,
            "texCoord": 0
          },
          "glossinessFactor": 0.40000000000000002,
          "specularFactor": [
            0,
            0,
            0
          ]
        }
      },
      "name": "SVGMat.013"
    }
  ],
  "meshes": [
    {
      "primitives": [
        {
          "attributes": {
            "NORMAL": 1,
            "POSITION": 0,
            "TANGENT": 2,
            "TEXCOORD_0": 3
          },
          "indices": 4,
          "material": 2,
          "mode": 4
        }
      ]
    },
    {
      "primitives": [
        {
          "attributes": {
            "NORMAL": 6,
            "POSITION": 5,
            "TANGENT": 7,
            "TEXCOORD_0": 8
          },
          "indices": 9,
          "material": 3,
          "mode": 4
        }
      ]
    },
    {
      "primitives": [
        {
          "attributes": {
            "NORMAL": 11,
            "POSITION": 10,
            "TANGENT": 12,
            "TEXCOORD_0": 13
          },
          "indices": 14,
          "material": 7,
          "mode": 4
        }
      ]
    },
    {
      "primitives": [
        {
          "attributes": {
            "NORMAL": 16,
            "POSITION": 15,
            "TANGENT": 17,
            "TEXCOORD_0": 18
          },
          "indices": 19,
          "material": 8,
          "mode": 4
        }
      ]
    },
    {
      "primitives": [
        {
          "attributes": {
            "NORMAL": 21,
            "POSITION": 20
          },
          "indices": 22,
          "material": 0,
          "mode": 4
        }
      ]
    },
    {
      "primitives": [
        {
          "attributes": {
            "NORMAL": 24,
            "POSITION": 23,
            "TANGENT": 25,
            "TEXCOORD_0": 26
          },
          "indices": 27,
          "material": 0,
          "mode": 4
        }
      ]
    },
    {
      "primitives": [
        {
          "attributes": {
            "NORMAL": 29,
            "POSITION": 28
          },
          "indices": 30,
          "material": 1,
          "mode": 4
        }
      ]
    },
    {
      "primitives": [
        {
          "attributes": {
            "NORMAL": 32,
            "POSITION": 31,
            "TANGENT": 33,
            "TEXCOORD_0": 34
          },
          "indices": 35,
          "material": 1,
          "mode": 4
        }
      ]
    },
    {
      "primitives": [
        {
          "attributes": {
            "NORMAL": 37,
            "POSITION": 36,
            "TANGENT": 38,
            "TEXCOORD_0": 39
          },
          "indices": 40,
          "material": 4,
          "mode": 4
        }
      ]
    },
    {
      "primitives": [
        {
          "attributes": {
            "NORMAL": 42,
            "POSITION": 41,
            "TANGENT": 43,
            "TEXCOORD_0": 44
          },
          "indices": 45,
          "material": 5,
          "mode": 4
        }
      ]
    },
    {
      "primitives": [
        {
          "attributes": {
            "NORMAL": 47,
            "POSITION": 46
          },
          "indices": 48,
          "material": 6,
          "mode": 4
        }
      ]
    }
  ],
  "nodes": [
    {
      "children": [
        1
      ],
      "name": "RootNode (gltf orientation matrix)",
      "rotation": [
        -0.70710678118654746,
        -0,
        -0,
        0.70710678118654757
      ]
    },
    {
      "children": [
        2
      ],
      "name": "RootNode (model correction matrix)"
    },
    {
      "children": [
        3,
        4,
        5,
        6,
        7,
        8,
        9,
        10,
        11,
        12,
        13
      ],
      "name": "27870a76cfb5402f90f601d8ff0e16db.obj.cleaner.materialmerger.gles"
    },
    {
      "mesh": 0,
      "name": ""
    },
    {
      "mesh": 1,
      "name": ""
    },
    {
      "mesh": 2,
      "name": ""
    },
    {
      "mesh": 3,
      "name": ""
    },
    {
      "mesh": 4,
      "name": ""
    },
    {
      "mesh": 5,
      "name": ""
    },
    {
      "mesh": 6,
      "name": ""
    },
    {
      "mesh": 7,
      "name": ""
    },
    {
      "mesh": 8,
      "name": ""
    },
    {
      "mesh": 9,
      "name": ""
    },
    {
      "mesh": 10,
      "name": ""
    }
  ],
  "samplers": [
    {
      "magFilter": 9729,
      "minFilter": 9987,
      "wrapS": 10497,
      "wrapT": 10497
    }
  ],
  "scene": 0,
  "scenes": [
    {
      "name": "OSG_Scene",
      "nodes": [
        0
      ]
    }
  ],
  "textures": [
    {
      "sampler": 0,
      "source": 0
    },
    {
      "sampler": 0,
      "source": 1
    },
    {
      "sampler": 0,
      "source": 2
    },
    {
      "sampler": 0,
      "source": 3
    },
    {
      "sampler": 0,
      "source": 4
    }
  ]
}

